<mxfile host="app.diagrams.net" modified="2021-03-09T10:20:00.693Z" agent="5.0 (X11; Linux x86_64) AppleWebKit/537.36 (KHTML, like Gecko) Chrome/89.0.4389.82 Safari/537.36" etag="EsIS-E4KxtQ9fpT8MVM1" version="14.4.5" type="github">
  <diagram id="C5RBs43oDa-KdzZeNtuy" name="Page-1">
    <mxGraphModel dx="759" dy="1080" grid="1" gridSize="10" guides="1" tooltips="1" connect="1" arrows="1" fold="1" page="1" pageScale="1" pageWidth="827" pageHeight="1169" math="0" shadow="0">
      <root>
        <mxCell id="WIyWlLk6GJQsqaUBKTNV-0" />
        <mxCell id="WIyWlLk6GJQsqaUBKTNV-1" parent="WIyWlLk6GJQsqaUBKTNV-0" />
        <mxCell id="o1F4Ynpm6mB_eTSMkokx-4" value="Biglietto&lt;br&gt;" style="html=1;" parent="WIyWlLk6GJQsqaUBKTNV-1" vertex="1">
          <mxGeometry x="310" y="380" width="110" height="50" as="geometry" />
        </mxCell>
        <mxCell id="o1F4Ynpm6mB_eTSMkokx-5" value="Cibo &lt;br&gt;(Abstract)" style="html=1;" parent="WIyWlLk6GJQsqaUBKTNV-1" vertex="1">
          <mxGeometry x="200" y="490" width="110" height="50" as="geometry" />
        </mxCell>
        <mxCell id="o1F4Ynpm6mB_eTSMkokx-17" style="edgeStyle=orthogonalEdgeStyle;rounded=0;orthogonalLoop=1;jettySize=auto;html=1;" parent="WIyWlLk6GJQsqaUBKTNV-1" source="o1F4Ynpm6mB_eTSMkokx-6" target="o1F4Ynpm6mB_eTSMkokx-5" edge="1">
          <mxGeometry relative="1" as="geometry" />
        </mxCell>
        <mxCell id="o1F4Ynpm6mB_eTSMkokx-6" value="PopCorn&lt;br&gt;" style="html=1;" parent="WIyWlLk6GJQsqaUBKTNV-1" vertex="1">
          <mxGeometry x="20" y="490" width="110" height="50" as="geometry" />
        </mxCell>
        <mxCell id="o1F4Ynpm6mB_eTSMkokx-18" style="edgeStyle=orthogonalEdgeStyle;rounded=0;orthogonalLoop=1;jettySize=auto;html=1;" parent="WIyWlLk6GJQsqaUBKTNV-1" source="o1F4Ynpm6mB_eTSMkokx-7" target="o1F4Ynpm6mB_eTSMkokx-5" edge="1">
          <mxGeometry relative="1" as="geometry" />
        </mxCell>
        <mxCell id="o1F4Ynpm6mB_eTSMkokx-7" value="Caramelle" style="html=1;" parent="WIyWlLk6GJQsqaUBKTNV-1" vertex="1">
          <mxGeometry x="20" y="560" width="110" height="50" as="geometry" />
        </mxCell>
        <mxCell id="o1F4Ynpm6mB_eTSMkokx-19" style="edgeStyle=orthogonalEdgeStyle;rounded=0;orthogonalLoop=1;jettySize=auto;html=1;entryX=0.918;entryY=1.04;entryDx=0;entryDy=0;entryPerimeter=0;" parent="WIyWlLk6GJQsqaUBKTNV-1" source="o1F4Ynpm6mB_eTSMkokx-8" target="o1F4Ynpm6mB_eTSMkokx-5" edge="1">
          <mxGeometry relative="1" as="geometry" />
        </mxCell>
        <mxCell id="o1F4Ynpm6mB_eTSMkokx-8" value="Patatine" style="html=1;" parent="WIyWlLk6GJQsqaUBKTNV-1" vertex="1">
          <mxGeometry x="20" y="630" width="110" height="50" as="geometry" />
        </mxCell>
        <mxCell id="o1F4Ynpm6mB_eTSMkokx-9" value="Bibita &lt;br&gt;(Abstarct)" style="html=1;" parent="WIyWlLk6GJQsqaUBKTNV-1" vertex="1">
          <mxGeometry x="400" y="490" width="110" height="50" as="geometry" />
        </mxCell>
        <mxCell id="o1F4Ynpm6mB_eTSMkokx-20" style="edgeStyle=orthogonalEdgeStyle;rounded=0;orthogonalLoop=1;jettySize=auto;html=1;" parent="WIyWlLk6GJQsqaUBKTNV-1" source="o1F4Ynpm6mB_eTSMkokx-11" target="o1F4Ynpm6mB_eTSMkokx-9" edge="1">
          <mxGeometry relative="1" as="geometry" />
        </mxCell>
        <mxCell id="o1F4Ynpm6mB_eTSMkokx-11" value="Fanta&lt;br&gt;" style="html=1;" parent="WIyWlLk6GJQsqaUBKTNV-1" vertex="1">
          <mxGeometry x="580" y="490" width="110" height="50" as="geometry" />
        </mxCell>
        <mxCell id="o1F4Ynpm6mB_eTSMkokx-21" style="edgeStyle=orthogonalEdgeStyle;rounded=0;orthogonalLoop=1;jettySize=auto;html=1;entryX=0.909;entryY=1.04;entryDx=0;entryDy=0;entryPerimeter=0;" parent="WIyWlLk6GJQsqaUBKTNV-1" source="o1F4Ynpm6mB_eTSMkokx-12" target="o1F4Ynpm6mB_eTSMkokx-9" edge="1">
          <mxGeometry relative="1" as="geometry" />
        </mxCell>
        <mxCell id="o1F4Ynpm6mB_eTSMkokx-12" value="Coca Cola&lt;br&gt;" style="html=1;" parent="WIyWlLk6GJQsqaUBKTNV-1" vertex="1">
          <mxGeometry x="580" y="570" width="110" height="50" as="geometry" />
        </mxCell>
        <mxCell id="o1F4Ynpm6mB_eTSMkokx-22" style="edgeStyle=orthogonalEdgeStyle;rounded=0;orthogonalLoop=1;jettySize=auto;html=1;" parent="WIyWlLk6GJQsqaUBKTNV-1" source="o1F4Ynpm6mB_eTSMkokx-13" target="o1F4Ynpm6mB_eTSMkokx-9" edge="1">
          <mxGeometry relative="1" as="geometry" />
        </mxCell>
        <mxCell id="o1F4Ynpm6mB_eTSMkokx-13" value="Caffe" style="html=1;" parent="WIyWlLk6GJQsqaUBKTNV-1" vertex="1">
          <mxGeometry x="420" y="620" width="110" height="50" as="geometry" />
        </mxCell>
        <mxCell id="o1F4Ynpm6mB_eTSMkokx-23" style="edgeStyle=orthogonalEdgeStyle;rounded=0;orthogonalLoop=1;jettySize=auto;html=1;entryX=0;entryY=0.5;entryDx=0;entryDy=0;" parent="WIyWlLk6GJQsqaUBKTNV-1" source="o1F4Ynpm6mB_eTSMkokx-14" target="o1F4Ynpm6mB_eTSMkokx-13" edge="1">
          <mxGeometry relative="1" as="geometry" />
        </mxCell>
        <mxCell id="o1F4Ynpm6mB_eTSMkokx-14" value="Espresso&lt;br&gt;" style="html=1;" parent="WIyWlLk6GJQsqaUBKTNV-1" vertex="1">
          <mxGeometry x="330" y="710" width="110" height="50" as="geometry" />
        </mxCell>
        <mxCell id="o1F4Ynpm6mB_eTSMkokx-24" style="edgeStyle=orthogonalEdgeStyle;rounded=0;orthogonalLoop=1;jettySize=auto;html=1;entryX=0.664;entryY=1.04;entryDx=0;entryDy=0;entryPerimeter=0;" parent="WIyWlLk6GJQsqaUBKTNV-1" source="o1F4Ynpm6mB_eTSMkokx-15" target="o1F4Ynpm6mB_eTSMkokx-13" edge="1">
          <mxGeometry relative="1" as="geometry">
            <Array as="points">
              <mxPoint x="493" y="700" />
              <mxPoint x="493" y="700" />
            </Array>
          </mxGeometry>
        </mxCell>
        <mxCell id="o1F4Ynpm6mB_eTSMkokx-15" value="Macchiato&lt;br&gt;" style="html=1;" parent="WIyWlLk6GJQsqaUBKTNV-1" vertex="1">
          <mxGeometry x="470" y="710" width="110" height="50" as="geometry" />
        </mxCell>
        <mxCell id="o1F4Ynpm6mB_eTSMkokx-25" style="edgeStyle=orthogonalEdgeStyle;rounded=0;orthogonalLoop=1;jettySize=auto;html=1;entryX=1;entryY=0.5;entryDx=0;entryDy=0;" parent="WIyWlLk6GJQsqaUBKTNV-1" source="o1F4Ynpm6mB_eTSMkokx-16" target="o1F4Ynpm6mB_eTSMkokx-13" edge="1">
          <mxGeometry relative="1" as="geometry">
            <Array as="points">
              <mxPoint x="665" y="645" />
            </Array>
          </mxGeometry>
        </mxCell>
        <mxCell id="o1F4Ynpm6mB_eTSMkokx-16" value="Corretto&lt;br&gt;" style="html=1;" parent="WIyWlLk6GJQsqaUBKTNV-1" vertex="1">
          <mxGeometry x="610" y="710" width="110" height="50" as="geometry" />
        </mxCell>
        <mxCell id="o1F4Ynpm6mB_eTSMkokx-27" value="Shop Manager &lt;br&gt;(container)" style="html=1;" parent="WIyWlLk6GJQsqaUBKTNV-1" vertex="1">
          <mxGeometry x="100" y="150" width="110" height="50" as="geometry" />
        </mxCell>
      </root>
    </mxGraphModel>
  </diagram>
</mxfile>
